<svg t="1573794224814" class="icon" viewBox="0 0 1024 1024" version="1.1" xmlns="http://www.w3.org/2000/svg" p-id="2095" width="32" height="32"><path d="M900.843291162643 666.2002352417469l-778.1543362894682 0.9268190002368328L123.0582343185817 357.89823927702827 901.3095969721372 356.8729457580163 900.843291162643 666.2002352417469z m-34.83391286202617-31.241041081420576L866.3171111717893 387.5195193400664l-711.8990870873815-0.5973638087464792-0.3062847164845266 248.88493319875428 69.66565349202054 0.007964850783288568 0.8189314759905173-73.59739346958773 25.26595483926876-0.02606678438166199-0.9094411439823986 73.50398749222012 65.88596975667973-0.08326889455251774 0.9145096853899588-153.75275544319496 25.26667891661269-0.026790861725592308L338.65805609398694 635.5876932948619l67.33702075392549-0.08182073986466065 0.8167592439587139-73.59666939224381 25.26667891661269-1.4749455495956436-0.8182073986465852 73.59522123755593 65.16551279946435 2.0911353692843413 0.9123374533581341-153.75347952053892 26.71483360448274-1.4734973949077759-0.9130615307020804 153.75130728850706 63.715909956906444 0.6415325267264329 0.817483321302646-73.40913336016463 27.4374627937299-0.7508682056606233-1.540836587893729 74.13393478144357 62.99328076765929 1.3656098706614657 1.635690719949224-151.57907525670205 28.164436447040664-1.4778418589713862-0.9152337627338625 153.75492767522678 63.71446180221858-2.253328694325802 2.2678102412044936-73.59811754693166 27.43818687107383-2.1997469708746085-1.4706010855320315 73.69152352429927 68.61139687925115 1.9948330825409855z" fill="#f4ea29" p-id="2096"></path></svg>
