<svg t="1573794358686" class="icon" viewBox="0 0 1024 1024" version="1.1" xmlns="http://www.w3.org/2000/svg" p-id="4361" width="128" height="128"><path d="M948.742 664.379h-6.803v-6.804c0-3.694-3.11-6.804-6.804-6.804-3.694 0-6.804 3.11-6.804 6.804v6.804h-6.803c-3.694 0-6.804 3.11-6.804 6.803s3.11 6.804 6.804 6.804h6.803v6.804c0 3.693 3.11 6.804 6.804 6.804 3.693 0 6.804-3.111 6.804-6.804v-6.804h6.803c3.694 0 6.804-3.11 6.804-6.804s-3.11-6.803-6.804-6.803z" fill="#F16723" p-id="4362"></path><path d="M495.394 138.712h-6.804v-6.804c0-3.694-3.11-6.804-6.804-6.804s-6.804 3.111-6.804 6.804v6.804h-6.803c-3.693 0-6.804 3.11-6.804 6.804 0 3.694 3.11 6.803 6.804 6.803h6.803v6.804c0 3.693 3.111 6.804 6.804 6.804s6.804-3.11 6.804-6.804v-6.804h6.804c3.693 0 6.803-3.11 6.803-6.803s-3.11-6.804-6.803-6.804z" fill="#4E9BD4" p-id="4363"></path><path d="M495.394 317.758c-11.08 0-20.023-8.943-20.023-20.023 0-11.082 8.942-20.024 20.023-20.024s20.023 8.943 20.023 20.024-8.942 20.023-20.023 20.023z m0-26.44c-3.5 0-6.416 2.917-6.416 6.417s2.916 6.415 6.416 6.415 6.415-2.916 6.415-6.415-2.916-6.416-6.415-6.416z" fill="#F16723" p-id="4364"></path><path d="M433.963 324.561a4.082 4.082 0 1 0 8.164 0 4.082 4.082 0 1 0-8.164 0zM67.124 471.142a4.082 4.082 0 1 0 8.164 0 4.082 4.082 0 1 0-8.164 0zM378.169 642.217a4.082 4.082 0 1 0 8.164 0 4.082 4.082 0 1 0-8.164 0zM917.444 240.19a4.082 4.082 0 1 0 8.165 0 4.082 4.082 0 1 0-8.165 0zM902.864 210.835a4.082 4.082 0 1 0 8.165 0 4.082 4.082 0 1 0-8.165 0z" fill="" p-id="4365"></path><path d="M294.381 120.438c-12.83 0-23.133-10.304-23.133-23.134S281.55 74.17 294.38 74.17s23.134 10.304 23.134 23.134-10.303 23.134-23.134 23.134z m0-32.66c-5.248 0-9.526 4.277-9.526 9.527s4.277 9.526 9.526 9.526 9.527-4.277 9.527-9.526-4.278-9.526-9.527-9.526z" fill="#FBD20A" p-id="4366"></path><path d="M310.71 627.831c-8.942 0-16.33-7.387-16.33-16.33s7.388-16.33 16.33-16.33 16.33 7.388 16.33 16.33-7.387 16.33-16.33 16.33z m0-19.051c-1.555 0-2.721 1.166-2.721 2.721s1.166 2.722 2.721 2.722 2.722-1.167 2.722-2.722-1.166-2.721-2.722-2.721z" fill="#4E9BD4" p-id="4367"></path><path d="M567.324 114.606h310.462v821.16H567.324z" fill="#FFFFFF" p-id="4368"></path><path d="M617.285 114.606h260.307v821.16H617.285z" fill="#E7D0A9" p-id="4369"></path><path d="M603.288 114.606h224.146v821.16H603.288z" fill="#FFE4B8" p-id="4370"></path><path d="M877.592 336.226c-6.416 0-11.665-5.249-11.665-11.665v-44.518c0-6.416 5.249-11.664 11.665-11.664 6.415 0 11.664 5.248 11.664 11.664v44.518c0 6.416-5.25 11.665-11.664 11.665z m-310.268 75.04c-6.416 0-11.665-5.248-11.665-11.664V114.606c0-6.416 5.249-11.665 11.665-11.665h310.268c6.415 0 11.664 5.249 11.664 11.665v134.332c0 6.416-5.249 11.664-11.664 11.664-6.416 0-11.665-5.248-11.665-11.664V126.271h-286.94v273.331c0 6.415-5.249 11.664-11.663 11.664zM877.592 947.43H567.324c-6.416 0-11.665-5.25-11.665-11.664V425.457c0-6.416 5.249-11.664 11.665-11.664s11.664 5.248 11.664 11.664v498.645h286.94V354.694c0-6.415 5.248-11.664 11.664-11.664 6.415 0 11.664 5.249 11.664 11.664v581.072c0 6.415-5.25 11.664-11.664 11.664z" fill="" p-id="4371"></path><path d="M634.976 649.02c-3.693 0-6.804-3.11-6.804-6.803v-63.765c0-3.693 3.11-6.804 6.804-6.804 3.694 0 6.804 3.111 6.804 6.804v63.765c0 3.694-3.111 6.803-6.804 6.803z" fill="#FFFFFF" p-id="4372"></path><path d="M634.976 664.573H602.12c-6.415 0-11.664-5.248-11.664-11.664 0-6.416 5.249-11.664 11.664-11.664h32.855c6.415 0 11.664 5.248 11.664 11.664 0 6.416-5.249 11.664-11.664 11.664z m0-213.066H602.12c-6.415 0-11.664-5.249-11.664-11.664 0-6.416 5.249-11.664 11.664-11.664h32.855c6.415 0 11.664 5.248 11.664 11.664 0 6.415-5.249 11.664-11.664 11.664z m0-213.066H602.12c-6.415 0-11.664-5.248-11.664-11.664 0-6.415 5.249-11.664 11.664-11.664h32.855c6.415 0 11.664 5.249 11.664 11.664s-5.249 11.664-11.664 11.664z m-16.525 554.05h-16.33c-6.415 0-11.664-5.25-11.664-11.665s5.249-11.664 11.664-11.664h16.33c6.416 0 11.664 5.25 11.664 11.664s-5.248 11.664-11.664 11.664z m0 42.575h-16.33c-6.415 0-11.664-5.249-11.664-11.665 0-6.415 5.249-11.664 11.664-11.664h16.33c6.416 0 11.664 5.249 11.664 11.664s-5.248 11.665-11.664 11.665z m0-85.15h-16.33c-6.415 0-11.664-5.248-11.664-11.664s5.249-11.664 11.664-11.664h16.33c6.416 0 11.664 5.248 11.664 11.664s-5.248 11.664-11.664 11.664z m0-42.574h-16.33c-6.415 0-11.664-5.248-11.664-11.664s5.249-11.664 11.664-11.664h16.33c6.416 0 11.664 5.248 11.664 11.664s-5.248 11.664-11.664 11.664z m0-127.917h-16.33c-6.415 0-11.664-5.249-11.664-11.664s5.249-11.664 11.664-11.664h16.33c6.416 0 11.664 5.248 11.664 11.664s-5.248 11.664-11.664 11.664z m0 42.574h-16.33c-6.415 0-11.664-5.248-11.664-11.664s5.249-11.664 11.664-11.664h16.33c6.416 0 11.664 5.248 11.664 11.664s-5.248 11.664-11.664 11.664z m0-85.15h-16.33c-6.415 0-11.664-5.248-11.664-11.663 0-6.416 5.249-11.665 11.664-11.665h16.33c6.416 0 11.664 5.249 11.664 11.665 0 6.415-5.248 11.664-11.664 11.664z m0-42.573h-16.33c-6.415 0-11.664-5.249-11.664-11.665s5.249-11.664 11.664-11.664h16.33c6.416 0 11.664 5.249 11.664 11.664s-5.248 11.665-11.664 11.665z m0-127.918h-16.33c-6.415 0-11.664-5.248-11.664-11.664s5.249-11.664 11.664-11.664h16.33c6.416 0 11.664 5.249 11.664 11.664s-5.248 11.664-11.664 11.664z m0 42.575h-16.33c-6.415 0-11.664-5.249-11.664-11.664s5.249-11.665 11.664-11.665h16.33c6.416 0 11.664 5.249 11.664 11.665s-5.248 11.664-11.664 11.664z m0-85.149h-16.33c-6.415 0-11.664-5.248-11.664-11.664 0-6.415 5.249-11.664 11.664-11.664h16.33c6.416 0 11.664 5.249 11.664 11.664s-5.248 11.664-11.664 11.664z m0-42.574h-16.33c-6.415 0-11.664-5.248-11.664-11.664 0-6.416 5.249-11.664 11.664-11.664h16.33c6.416 0 11.664 5.248 11.664 11.664 0 6.415-5.248 11.664-11.664 11.664z" fill="" p-id="4373"></path><path d="M475.76 477.946L113.975 116.16v821.16h821.16L505.309 507.495m-243.782-38.686l320.182 320.183H261.527V468.809z" fill="#FFE4B8" p-id="4374"></path><path d="M867.482 935.766h67.653l-821.16-821.16v67.458z" fill="#E7D0A9" p-id="4375"></path><path d="M149.939 150.57l-35.964-35.964v821.16h35.964z m42.769 743.4c-3.695 0-6.804-3.11-6.804-6.804V823.4c0-3.693 3.11-6.803 6.804-6.803 3.693 0 6.803 3.11 6.803 6.803v63.765c0.001 3.693-3.11 6.804-6.803 6.804z" fill="#FFFFFF" p-id="4376"></path><path d="M113.975 577.091c6.415 0 11.664-5.248 11.664-11.664V142.794l300.16 300.16c4.47 4.47 11.858 4.47 16.524 0 4.47-4.472 4.47-11.86 0-16.525L122.139 106.44c-3.305-3.305-8.359-4.277-12.635-2.527-4.277 1.75-7.193 6.027-7.193 10.693v450.821c0 6.415 5.248 11.663 11.664 11.663z m0 65.904c6.415 0 11.664-5.249 11.664-11.664v-39.853c0-6.416-5.249-11.664-11.664-11.664-6.416 0-11.664 5.248-11.664 11.664v39.853c0 6.414 5.248 11.664 11.664 11.664z" fill="" p-id="4377"></path><path d="M943.3 927.407L461.372 445.48c-4.471-4.471-11.859-4.471-16.525 0-4.47 4.472-4.47 11.859 0 16.525l462.097 462.097H125.64v-267.5c0-6.415-5.249-11.664-11.664-11.664-6.416 0-11.664 5.249-11.664 11.664v278.97c0 6.415 5.248 11.663 11.664 11.663h821.16c4.666 0 8.943-2.916 10.692-7.193s0.972-9.33-2.528-12.635z" fill="" p-id="4378"></path><path d="M257.056 456.562c-4.277 1.75-7.193 6.026-7.193 10.692v320.182c0 6.416 5.248 11.665 11.664 11.665h320.182c4.666 0 8.943-2.917 10.693-7.193s0.777-9.332-2.527-12.636L269.69 459.089c-3.305-3.499-8.359-4.472-12.635-2.527z m16.135 38.88l280.33 280.33H273.19v-280.33zM182.988 712.202h-33.05c-6.415 0-11.663 5.249-11.663 11.664s5.248 11.665 11.664 11.665h33.049c6.415 0 11.664-5.249 11.664-11.665s-5.249-11.664-11.664-11.664z m0-213.066h-33.05c-6.415 0-11.663 5.248-11.663 11.664s5.248 11.664 11.664 11.664h33.049c6.415 0 11.664-5.248 11.664-11.664s-5.249-11.664-11.664-11.664z m-33.05-189.737h33.05c6.415 0 11.664-5.249 11.664-11.664s-5.249-11.665-11.664-11.665h-33.05c-6.415 0-11.663 5.249-11.663 11.665s5.25 11.664 11.664 11.664z m16.525 530.526H149.94c-6.416 0-11.664 5.248-11.664 11.664s5.248 11.664 11.664 11.664h16.524c6.416 0 11.664-5.248 11.664-11.664s-5.248-11.664-11.664-11.664z m0 42.769H149.94c-6.416 0-11.664 5.248-11.664 11.664 0 6.415 5.248 11.664 11.664 11.664h16.524c6.416 0 11.664-5.249 11.664-11.664s-5.248-11.664-11.664-11.664z m0-85.343H149.94c-6.416 0-11.664 5.248-11.664 11.664s5.248 11.664 11.664 11.664h16.524c6.416 0 11.664-5.249 11.664-11.664s-5.248-11.664-11.664-11.664z m0-42.574H149.94c-6.416 0-11.664 5.248-11.664 11.664 0 6.415 5.248 11.664 11.664 11.664h16.524c6.416 0 11.664-5.249 11.664-11.664 0-6.416-5.248-11.664-11.664-11.664z m-16.524-104.59h16.524c6.416 0 11.664-5.248 11.664-11.663s-5.248-11.665-11.664-11.665H149.94c-6.416 0-11.664 5.249-11.664 11.665s5.25 11.664 11.664 11.664z m0 42.77h16.524c6.416 0 11.664-5.25 11.664-11.665s-5.248-11.664-11.664-11.664H149.94c-6.416 0-11.664 5.249-11.664 11.664s5.25 11.664 11.664 11.664z m0-85.344h16.524c6.416 0 11.664-5.248 11.664-11.664 0-6.415-5.248-11.664-11.664-11.664H149.94c-6.416 0-11.664 5.249-11.664 11.664s5.25 11.664 11.664 11.664z m0-42.575h16.524c6.416 0 11.664-5.248 11.664-11.664s-5.248-11.664-11.664-11.664H149.94c-6.416 0-11.664 5.249-11.664 11.664s5.25 11.664 11.664 11.664z m0-127.917h16.524c6.416 0 11.664-5.248 11.664-11.664s-5.248-11.664-11.664-11.664H149.94c-6.416 0-11.664 5.248-11.664 11.664s5.25 11.664 11.664 11.664z m0 42.769h16.524c6.416 0 11.664-5.249 11.664-11.664 0-6.416-5.248-11.664-11.664-11.664H149.94c-6.416 0-11.664 5.248-11.664 11.664 0 6.415 5.25 11.664 11.664 11.664z m0-85.343h16.524c6.416 0 11.664-5.248 11.664-11.664s-5.248-11.664-11.664-11.664H149.94c-6.416 0-11.664 5.248-11.664 11.664s5.25 11.664 11.664 11.664z m0-42.574h16.524c6.416 0 11.664-5.249 11.664-11.664s-5.248-11.664-11.664-11.664H149.94c-6.416 0-11.664 5.248-11.664 11.664s5.25 11.664 11.664 11.664z" fill="" p-id="4379"></path></svg>
