<svg width="1024" height="1024" xmlns="http://www.w3.org/2000/svg" class="icon">
 <defs>
  <style type="text/css"/>
 </defs>
 <g>
  <title>background</title>
  <rect fill="none" id="canvas_background" height="402" width="582" y="-1" x="-1"/>
 </g>
 <g>
  <title>Layer 1</title>
  <path id="svg_11" fill="#FFFFFF" d="m567.3236,114.60553l310.4625,0l0,821.16013l-310.4625,0l0,-821.16013z"/>
  <path id="svg_12" fill="#ffffaa" d="m617.2851,114.60553l260.30647,0l0,821.16013l-260.30647,0l0,-821.16013z"/>
  <path id="svg_13" fill="#ffff00" d="m603.28757,114.60553l224.14692,0l0,821.16013l-224.14692,0l0,-821.16013z"/>
  <path id="svg_14" d="m877.59157,336.22551c-6.41567,0 -11.66411,-5.24844 -11.66411,-11.6641l0,-44.51854c0,-6.41566 5.24844,-11.6641 11.66411,-11.6641c6.41566,0 11.6641,5.24844 11.6641,11.6641l0,44.51854c0,6.41566 -5.24946,11.6641 -11.6641,11.6641zm-310.26797,75.04056c-6.41567,0 -11.66411,-5.24844 -11.66411,-11.6641l0,-284.99644c0,-6.41566 5.24844,-11.6641 11.66411,-11.6641l310.26797,0c6.41566,0 11.6641,5.24844 11.6641,11.6641l0,134.33273c0,6.41567 -5.24844,11.6641 -11.6641,11.6641c-6.41567,0 -11.66411,-5.24843 -11.66411,-11.6641l0,-122.6676l-286.93976,0l0,273.3313c0,6.41465 -5.24946,11.66411 -11.6641,11.66411zm310.26797,536.16369l-310.26797,0c-6.41567,0 -11.66411,-5.24946 -11.66411,-11.6641l0,-510.30854c0,-6.41567 5.24844,-11.66411 11.66411,-11.66411s11.6641,5.24844 11.6641,11.66411l0,498.64444l286.93976,0l0,-569.40721c0,-6.41566 5.24844,-11.6641 11.66411,-11.6641c6.41566,0 11.6641,5.24844 11.6641,11.6641l0,581.07131c0,6.41566 -5.24946,11.6641 -11.6641,11.6641z"/>
  <path id="svg_15" fill="#FFFFFF" d="m634.97579,649.02043c-3.69315,0 -6.80371,-3.11056 -6.80371,-6.80372l0,-63.7645c0,-3.69316 3.11056,-6.80372 6.80371,-6.80372c3.69418,0 6.80372,3.11056 6.80372,6.80372l0,63.7645c0,3.69418 -3.11056,6.80372 -6.80372,6.80372z"/>
  <path id="svg_16" d="m634.97579,664.57325l-32.85443,0c-6.41566,0 -11.6641,-5.24844 -11.6641,-11.6641c0,-6.41567 5.24844,-11.66411 11.6641,-11.6641l32.85443,0c6.41567,0 11.66411,5.24843 11.66411,11.6641c0,6.41566 -5.24844,11.6641 -11.66411,11.6641zm0,-213.06644l-32.85443,0c-6.41566,0 -11.6641,-5.24844 -11.6641,-11.6641c0,-6.41567 5.24844,-11.66411 11.6641,-11.66411l32.85443,0c6.41567,0 11.66411,5.24844 11.66411,11.66411c0,6.41566 -5.24844,11.6641 -11.66411,11.6641zm0,-213.06542l-32.85443,0c-6.41566,0 -11.6641,-5.24843 -11.6641,-11.6641c0,-6.41567 5.24844,-11.6641 11.6641,-11.6641l32.85443,0c6.41567,0 11.66411,5.24843 11.66411,11.6641c0,6.41464 -5.24844,11.6641 -11.66411,11.6641zm-16.52448,554.04892l-16.32995,0c-6.41566,0 -11.6641,-5.24843 -11.6641,-11.6641s5.24844,-11.6641 11.6641,-11.6641l16.32995,0c6.41566,0 11.6641,5.24946 11.6641,11.6641s-5.24843,11.6641 -11.6641,11.6641zm0,42.5752l-16.32995,0c-6.41566,0 -11.6641,-5.24843 -11.6641,-11.6641c0,-6.41566 5.24844,-11.6641 11.6641,-11.6641l16.32995,0c6.41566,0 11.6641,5.24844 11.6641,11.6641c0,6.41464 -5.24843,11.6641 -11.6641,11.6641zm0,-85.14937l-16.32995,0c-6.41566,0 -11.6641,-5.24844 -11.6641,-11.6641s5.24844,-11.66411 11.6641,-11.66411l16.32995,0c6.41566,0 11.6641,5.24844 11.6641,11.66411s-5.24843,11.6641 -11.6641,11.6641zm0,-42.57418l-16.32995,0c-6.41566,0 -11.6641,-5.24843 -11.6641,-11.6641s5.24844,-11.6641 11.6641,-11.6641l16.32995,0c6.41566,0 11.6641,5.24843 11.6641,11.6641s-5.24843,11.6641 -11.6641,11.6641zm0,-127.91706l-16.32995,0c-6.41566,0 -11.6641,-5.24844 -11.6641,-11.6641s5.24844,-11.66411 11.6641,-11.66411l16.32995,0c6.41566,0 11.6641,5.24844 11.6641,11.66411s-5.24843,11.6641 -11.6641,11.6641zm0,42.57417l-16.32995,0c-6.41566,0 -11.6641,-5.24843 -11.6641,-11.6641s5.24844,-11.6641 11.6641,-11.6641l16.32995,0c6.41566,0 11.6641,5.24844 11.6641,11.6641s-5.24843,11.6641 -11.6641,11.6641zm0,-85.14937l-16.32995,0c-6.41566,0 -11.6641,-5.24844 -11.6641,-11.6641c0,-6.41567 5.24844,-11.66411 11.6641,-11.66411l16.32995,0c6.41566,0 11.6641,5.24844 11.6641,11.66411c0,6.41566 -5.24843,11.6641 -11.6641,11.6641zm0,-42.57418l-16.32995,0c-6.41566,0 -11.6641,-5.24844 -11.6641,-11.6641s5.24844,-11.6641 11.6641,-11.6641l16.32995,0c6.41566,0 11.6641,5.24843 11.6641,11.6641s-5.24843,11.6641 -11.6641,11.6641zm0,-127.91706l-16.32995,0c-6.41566,0 -11.6641,-5.24844 -11.6641,-11.66411s5.24844,-11.6641 11.6641,-11.6641l16.32995,0c6.41566,0 11.6641,5.24844 11.6641,11.6641s-5.24843,11.66411 -11.6641,11.66411zm0,42.57417l-16.32995,0c-6.41566,0 -11.6641,-5.24843 -11.6641,-11.6641s5.24844,-11.6641 11.6641,-11.6641l16.32995,0c6.41566,0 11.6641,5.24843 11.6641,11.6641s-5.24843,11.6641 -11.6641,11.6641zm0,-85.14835l-16.32995,0c-6.41566,0 -11.6641,-5.24844 -11.6641,-11.6641c0,-6.41567 5.24844,-11.6641 11.6641,-11.6641l16.32995,0c6.41566,0 11.6641,5.24843 11.6641,11.6641c0,6.41464 -5.24843,11.6641 -11.6641,11.6641zm0,-42.57418l-16.32995,0c-6.41566,0 -11.6641,-5.24843 -11.6641,-11.6641c0,-6.41566 5.24844,-11.6641 11.6641,-11.6641l16.32995,0c6.41566,0 11.6641,5.24844 11.6641,11.6641c0,6.41464 -5.24843,11.6641 -11.6641,11.6641z"/>
  <path id="svg_17" fill="#ffff00" d="m475.75958,475.242764l-361.78476,-361.78476l0,821.16013l821.16013,0l-429.82604,-429.82603m-243.78198,-38.68547l320.18225,320.18226l-320.18225,0l0,-320.18226z"/>
  <path id="svg_18" fill="#ffffaa" d="m867.48172,935.76566l67.65323,0l-821.16013,-821.16013l0,67.45869l753.5069,753.70144z"/>
  <path id="svg_19" fill="#FFFFFF" d="m149.93879,150.57053l-35.96397,-35.965l0,821.16013l35.96397,0l0,-785.19513zm42.76871,743.39911c-3.69417,0 -6.80371,-3.11057 -6.80371,-6.80372l0,-63.76451c0,-3.69315 3.11056,-6.80372 6.80371,-6.80372c3.69316,0 6.80372,3.11057 6.80372,6.80372l0,63.76451c0.00103,3.69315 -3.10954,6.80372 -6.80372,6.80372z"/>
  <path id="svg_20" d="m113.97482,577.09146c6.41566,0 11.6641,-5.24843 11.6641,-11.6641l0,-422.63324l300.15915,300.15915c4.47131,4.47131 11.85864,4.47131 16.52449,0c4.4713,-4.47131 4.4713,-11.85864 0,-16.52449l-320.18328,-319.98771c-3.3051,-3.3051 -8.359,-4.27677 -12.63577,-2.52695c-4.27677,1.74982 -7.19279,6.02659 -7.19279,10.69244l0,450.82182c0,6.41465 5.24843,11.66308 11.6641,11.66308zm0,65.90341c6.41566,0 11.6641,-5.24844 11.6641,-11.66411l0,-39.85269c0,-6.41566 -5.24844,-11.6641 -11.6641,-11.6641c-6.41567,0 -11.6641,5.24844 -11.6641,11.6641l0,39.85269c0,6.41465 5.24843,11.66411 11.6641,11.66411z"/>
  <path id="svg_21" d="m943.29941,927.40666l-481.92644,-481.92644c-4.47131,-4.47131 -11.85864,-4.47131 -16.52449,0c-4.47131,4.47131 -4.47131,11.85864 0,16.52448l462.09685,462.09686l-781.30641,0l0,-267.49926c0,-6.41566 -5.24844,-11.6641 -11.6641,-11.6641c-6.41567,0 -11.6641,5.24844 -11.6641,11.6641l0,278.96882c0,6.41567 5.24843,11.6641 11.6641,11.6641l821.16013,0c4.66584,0 8.94261,-2.91602 10.69243,-7.19279s0.97167,-9.33067 -2.52797,-12.63577z"/>
  <path id="svg_22" d="m257.05563,456.56173c-4.27677,1.74982 -7.1928,6.02659 -7.1928,10.69243l0,320.18226c0,6.41566 5.24844,11.6641 11.6641,11.6641l320.18226,0c4.66584,0 8.94261,-2.91603 10.69243,-7.1928s0.77713,-9.33169 -2.52695,-12.63577l-320.18328,-320.18327c-3.3051,-3.49862 -8.35899,-4.47131 -12.63576,-2.52695zm16.1354,38.88102l280.32957,280.32956l-280.32956,0l0,-280.32956l-0.00001,0z"/>
  <path id="svg_23" d="m182.98776,712.20235l-33.04897,0c-6.41566,0 -11.6641,5.24843 -11.6641,11.6641s5.24844,11.6641 11.6641,11.6641l33.04897,0c6.41567,0 11.6641,-5.24844 11.6641,-11.6641s-5.24843,-11.6641 -11.6641,-11.6641zm0,-213.06645l-33.04897,0c-6.41566,0 -11.6641,5.24844 -11.6641,11.66411s5.24844,11.6641 11.6641,11.6641l33.04897,0c6.41567,0 11.6641,-5.24844 11.6641,-11.6641s-5.24843,-11.66411 -11.6641,-11.66411zm-33.04897,-189.73721l33.04897,0c6.41567,0 11.6641,-5.24844 11.6641,-11.6641s-5.24843,-11.6641 -11.6641,-11.6641l-33.04897,0c-6.41566,0 -11.6641,5.24843 -11.6641,11.6641s5.24946,11.6641 11.6641,11.6641zm16.52449,530.52618l-16.52449,0c-6.41566,0 -11.6641,5.24844 -11.6641,11.6641s5.24844,11.66411 11.6641,11.66411l16.52449,0c6.41566,0 11.6641,-5.24844 11.6641,-11.66411s-5.24844,-11.6641 -11.6641,-11.6641zm0,42.76872l-16.52449,0c-6.41566,0 -11.6641,5.24843 -11.6641,11.6641c0,6.41566 5.24844,11.6641 11.6641,11.6641l16.52449,0c6.41566,0 11.6641,-5.24844 11.6641,-11.6641c0,-6.41464 -5.24844,-11.6641 -11.6641,-11.6641zm0,-85.34289l-16.52449,0c-6.41566,0 -11.6641,5.24843 -11.6641,11.6641s5.24844,11.6641 11.6641,11.6641l16.52449,0c6.41566,0 11.6641,-5.24844 11.6641,-11.6641s-5.24844,-11.6641 -11.6641,-11.6641zm0,-42.57418l-16.52449,0c-6.41566,0 -11.6641,5.24844 -11.6641,11.6641c0,6.41567 5.24844,11.6641 11.6641,11.6641l16.52449,0c6.41566,0 11.6641,-5.24843 11.6641,-11.6641c0,-6.41566 -5.24844,-11.6641 -11.6641,-11.6641zm-16.52449,-104.58886l16.52449,0c6.41566,0 11.6641,-5.24844 11.6641,-11.6641s-5.24844,-11.6641 -11.6641,-11.6641l-16.52449,0c-6.41566,0 -11.6641,5.24843 -11.6641,11.6641s5.24946,11.6641 11.6641,11.6641zm0,42.76871l16.52449,0c6.41566,0 11.6641,-5.24843 11.6641,-11.6641s-5.24844,-11.6641 -11.6641,-11.6641l-16.52449,0c-6.41566,0 -11.6641,5.24844 -11.6641,11.6641s5.24946,11.6641 11.6641,11.6641zm0,-85.34289l16.52449,0c6.41566,0 11.6641,-5.24843 11.6641,-11.6641c0,-6.41566 -5.24844,-11.6641 -11.6641,-11.6641l-16.52449,0c-6.41566,0 -11.6641,5.24844 -11.6641,11.6641c0,6.41464 5.24946,11.6641 11.6641,11.6641zm0,-42.5752l16.52449,0c6.41566,0 11.6641,-5.24843 11.6641,-11.6641s-5.24844,-11.6641 -11.6641,-11.6641l-16.52449,0c-6.41566,0 -11.6641,5.24844 -11.6641,11.6641s5.24946,11.6641 11.6641,11.6641zm0,-127.91706l16.52449,0c6.41566,0 11.6641,-5.24844 11.6641,-11.6641s-5.24844,-11.66411 -11.6641,-11.66411l-16.52449,0c-6.41566,0 -11.6641,5.24844 -11.6641,11.66411s5.24946,11.6641 11.6641,11.6641zm0,42.76871l16.52449,0c6.41566,0 11.6641,-5.24843 11.6641,-11.6641c0,-6.41566 -5.24844,-11.6641 -11.6641,-11.6641l-16.52449,0c-6.41566,0 -11.6641,5.24843 -11.6641,11.6641c0,6.41567 5.24946,11.6641 11.6641,11.6641zm0,-85.34289l16.52449,0c6.41566,0 11.6641,-5.24843 11.6641,-11.6641s-5.24844,-11.6641 -11.6641,-11.6641l-16.52449,0c-6.41566,0 -11.6641,5.24843 -11.6641,11.6641s5.24946,11.6641 11.6641,11.6641zm0,-42.57417l16.52449,0c6.41566,0 11.6641,-5.24844 11.6641,-11.66411s-5.24844,-11.6641 -11.6641,-11.6641l-16.52449,0c-6.41566,0 -11.6641,5.24844 -11.6641,11.6641s5.24946,11.66411 11.6641,11.66411z"/>
 </g>
</svg>
